<svg width="154" height="145" viewBox="0 0 154 145" fill="none" xmlns="http://www.w3.org/2000/svg">
<path d="M52.128 44.224C52.512 44.608 52.8 45.056 52.992 45.568C53.248 46.016 53.376 46.56 53.376 47.2C53.376 47.968 53.184 48.672 52.8 49.312C52.416 49.952 51.904 50.464 51.264 50.848C50.624 51.232 49.888 51.424 49.056 51.424C48.48 51.424 47.776 51.2 46.944 50.752C46.176 50.304 45.216 49.76 44.064 49.12C42.144 48.032 40.16 47.232 38.112 46.72C36.128 46.208 33.696 45.952 30.816 45.952C27.552 45.952 24.832 46.4 22.656 47.296C20.48 48.192 18.848 49.376 17.76 50.848C16.672 52.32 16.128 53.92 16.128 55.648C16.128 57.76 16.896 59.616 18.432 61.216C20.032 62.816 22.048 64.288 24.48 65.632C26.976 66.912 29.568 68.224 32.256 69.568C37.248 71.936 41.28 74.336 44.352 76.768C47.488 79.2 49.76 81.824 51.168 84.64C52.64 87.456 53.376 90.656 53.376 94.24C53.376 96.992 52.8 99.552 51.648 101.92C50.56 104.288 48.96 106.368 46.848 108.16C44.8 109.952 42.368 111.328 39.552 112.288C36.736 113.312 33.632 113.824 30.24 113.824C27.936 113.824 25.376 113.504 22.56 112.864C19.744 112.288 17.12 111.52 14.688 110.56C12.256 109.536 10.336 108.512 8.928 107.488C7.136 105.952 6.24 104.448 6.24 102.976C6.24 102.208 6.4 101.504 6.72 100.864C7.104 100.224 7.584 99.712 8.16 99.328C8.8 98.944 9.44 98.752 10.08 98.752C10.592 98.752 11.168 98.912 11.808 99.232C12.512 99.552 13.28 99.968 14.112 100.48C15.904 101.504 18.08 102.592 20.64 103.744C23.264 104.896 26.432 105.472 30.144 105.472C32.832 105.472 35.232 104.992 37.344 104.032C39.52 103.008 41.248 101.664 42.528 100C43.808 98.336 44.448 96.48 44.448 94.432C44.448 92.192 43.84 90.08 42.624 88.096C41.408 86.048 39.616 84.128 37.248 82.336C34.944 80.544 32.032 78.912 28.512 77.44C26.144 76.352 23.712 75.2 21.216 73.984C18.72 72.768 16.416 71.36 14.304 69.76C12.192 68.096 10.496 66.112 9.216 63.808C7.936 61.44 7.296 58.624 7.296 55.36C7.296 51.84 8.32 48.768 10.368 46.144C12.416 43.52 15.232 41.472 18.816 40C22.464 38.464 26.688 37.696 31.488 37.696C35.456 37.696 39.264 38.272 42.912 39.424C46.56 40.576 49.632 42.176 52.128 44.224ZM76.8045 109.504C76.6765 110.528 76.1645 111.296 75.2685 111.808C74.4365 112.256 73.5085 112.48 72.4845 112.48C71.3965 112.48 70.3405 112.096 69.3165 111.328C68.3565 110.496 67.9405 109.376 68.0685 107.968C69.0285 99.968 69.8285 92.224 70.4685 84.736C71.1085 77.184 71.5245 69.76 71.7165 62.464C71.9085 55.104 71.8445 47.712 71.5245 40.288C71.4605 39.008 71.8445 38.016 72.6765 37.312C73.5725 36.608 74.6285 36.256 75.8445 36.256C76.6765 36.256 77.4445 36.448 78.1485 36.832C78.8525 37.152 79.4285 37.76 79.8765 38.656C80.3245 39.424 81.1565 40.832 82.3725 42.88C83.6525 44.928 85.2205 47.488 87.0765 50.56C88.9965 53.568 91.1085 56.896 93.4125 60.544C95.7165 64.192 98.1165 68.032 100.613 72.064C103.109 76.032 105.605 80.032 108.101 84.064C110.661 88.032 113.093 91.84 115.397 95.488C115.333 91.008 115.365 86.496 115.493 81.952C115.685 77.344 115.909 72.768 116.165 68.224C116.485 63.68 116.837 59.2 117.221 54.784C117.669 50.304 118.117 45.952 118.565 41.728C118.693 40.448 119.141 39.424 119.909 38.656C120.741 37.888 121.797 37.504 123.077 37.504C124.677 37.504 125.765 37.92 126.341 38.752C126.981 39.52 127.237 40.64 127.109 42.112C126.597 47.36 126.117 52.448 125.669 57.376C125.285 62.24 124.933 67.232 124.613 72.352C124.293 77.408 124.037 82.912 123.845 88.864C123.653 94.816 123.525 101.536 123.461 109.024C123.461 110.048 123.077 110.976 122.309 111.808C121.541 112.576 120.517 112.96 119.237 112.96C118.341 112.96 117.509 112.736 116.741 112.288C116.037 111.904 115.429 111.328 114.917 110.56C111.589 105.44 108.677 100.928 106.181 97.024C103.685 93.12 101.413 89.568 99.3645 86.368C97.3165 83.104 95.3325 79.936 93.4125 76.864C91.4925 73.792 89.4765 70.528 87.3645 67.072C85.2525 63.552 82.8525 59.584 80.1645 55.168C80.2925 59.84 80.2925 64.448 80.1645 68.992C80.0365 73.536 79.8125 78.048 79.4925 82.528C79.2365 87.008 78.8525 91.488 78.3405 95.968C77.8925 100.448 77.3805 104.96 76.8045 109.504Z" fill="#022718"/>
<path d="M117.401 24L99 42H135.599L154 24H117.401Z" fill="#FF5722"/>
<rect width="4" height="24" rx="2" transform="matrix(-1 0 0 1 138 39)" fill="#FF5722"/>
</svg>
